<svg width="49" height="49" viewBox="0 0 49 49" fill="none" xmlns="http://www.w3.org/2000/svg">
<g clip-path="url(#clip0_12_11493)">
<path d="M39.4262 2.99414C43.4378 2.99414 46.6942 6.16081 46.6942 10.0619V13.8595H32.1582V10.0619C32.1582 6.16081 35.4146 2.99414 39.4262 2.99414Z" fill="url(#paint0_linear_12_11493)"/>
<path d="M32.1579 20.8305C32.1579 21.9925 31.2159 22.9316 30.054 22.9316H27.3854H22.5037H17.7312H12.8495H8.077H3.19385V9.63952C3.19385 5.97005 6.25405 2.99414 10.0275 2.99414H38.8836C38.9621 3.1086 32.2868 3.07726 32.1579 10.9054C32.1579 15.5717 32.1579 18.8801 32.1579 20.8305Z" fill="url(#paint1_linear_12_11493)"/>
</g>
<g clip-path="url(#clip1_12_11493)">
<path d="M10.4615 46.4941C6.4499 46.4941 3.19353 43.3275 3.19353 39.4264V35.6288H17.7295V39.4264C17.7295 43.3275 14.4731 46.4941 10.4615 46.4941Z" fill="url(#paint2_linear_12_11493)"/>
<path d="M17.7298 28.6578C17.7298 27.4958 18.6717 26.5566 19.8337 26.5566H22.5023H27.384H32.1565H37.0382H41.8107H46.6938V39.8488C46.6938 43.5182 43.6336 46.4941 39.8602 46.4941H11.0041C10.9256 46.3797 17.6009 46.411 17.7298 38.5829C17.7298 33.9166 17.7298 30.6082 17.7298 28.6578Z" fill="url(#paint3_linear_12_11493)"/>
</g>
<defs>
<linearGradient id="paint0_linear_12_11493" x1="46.6942" y1="13.8595" x2="40.4127" y2="4.00917" gradientUnits="userSpaceOnUse">
<stop stop-color="#409FED"/>
<stop offset="1" stop-color="#194799"/>
</linearGradient>
<linearGradient id="paint1_linear_12_11493" x1="27.1998" y1="2.99414" x2="19.9397" y2="21.134" gradientUnits="userSpaceOnUse">
<stop stop-color="#409FED"/>
<stop offset="1" stop-color="#194799"/>
</linearGradient>
<linearGradient id="paint2_linear_12_11493" x1="6.19632" y1="35.6288" x2="8.71631" y2="48.1553" gradientUnits="userSpaceOnUse">
<stop stop-color="#8F2C1E"/>
<stop offset="1" stop-color="#EF4933"/>
</linearGradient>
<linearGradient id="paint3_linear_12_11493" x1="22.6879" y1="46.4941" x2="29.948" y2="28.3543" gradientUnits="userSpaceOnUse">
<stop stop-color="#8F2C1E"/>
<stop offset="1" stop-color="#EF4933"/>
</linearGradient>
<clipPath id="clip0_12_11493">
<rect width="43.5" height="19.9375" fill="white" transform="translate(3.19385 2.99414)"/>
</clipPath>
<clipPath id="clip1_12_11493">
<rect width="43.5" height="19.9375" fill="white" transform="matrix(-1 0 0 -1 46.6938 46.4941)"/>
</clipPath>
</defs>
</svg>
