<svg width="274" height="34" viewBox="0 0 274 34" fill="none" xmlns="http://www.w3.org/2000/svg">
<path d="M5.46695 7.43018H3.01904L8.77492 29.3951L5.46695 7.43018Z" fill="#EF4933"/>
<path d="M8.17997 4.58545H5.89746L10.0986 27.7413L8.17997 4.58545Z" fill="#18469C"/>
<path d="M11.6503 2.88867H9.073L10.9999 25.8324L11.6503 2.88867Z" fill="#FF9500"/>
<path fill-rule="evenodd" clip-rule="evenodd" d="M23.0673 0.817383H12.6923V21.2689C12.6923 25.0316 12.6297 27.1555 12.1382 28.6589C11.6878 30.0366 10.8538 30.9437 8.95931 32.1249L7.85818 32.8114L2.08452 10.3047L0.249023 10.7756L6.17163 33.8629L6.15005 33.8763H6.17508L6.17931 33.8928L6.24366 33.8763H23.0673V24.298L28.6788 33.8763H40.3919L30.4028 16.3398L38.4057 8.33685L30.9708 0.901925L23.0673 8.80547V0.817383ZM14.5873 21.2689V2.71231H21.1723V13.3802L30.9708 3.58176L35.7259 8.33685L28.0409 16.0219L37.1317 31.9814H29.7648L23.0835 20.5771L21.1723 23.7624V31.9814H12.2616C13.0328 31.2097 13.58 30.3469 13.9394 29.2477C14.5451 27.3948 14.5873 24.9262 14.5873 21.2689Z" fill="#3A3A3A"/>
<path d="M260.438 19.1188C260.438 21.5852 262.248 23.763 264.872 23.763C267.47 23.763 269.306 21.5852 269.306 19.1188C269.306 16.6787 267.47 14.5009 264.872 14.5009C262.248 14.5009 260.438 16.6787 260.438 19.1188ZM260.438 24.4976V26.7279H256.712V7.04932H260.438V13.74H260.49C261.54 12.3232 263.166 11.09 265.554 11.09C270.12 11.09 273.189 14.5272 273.189 19.1188C273.189 23.7367 270.12 27.1739 265.554 27.1739C263.166 27.1739 261.54 25.9145 260.49 24.4976H260.438Z" fill="#3A3A3A"/>
<path d="M249.832 11.5361H253.558V26.728H250.12V24.5502H250.068C249.281 25.9933 247.68 27.174 245.371 27.174C241.882 27.174 239.468 24.524 239.468 20.7195V11.5361H243.194V20.4046C243.194 22.2675 244.663 23.7631 246.5 23.7631C248.362 23.7631 249.832 22.2675 249.832 20.4046V11.5361Z" fill="#3A3A3A"/>
<path d="M236.319 26.7279H232.594V18.6465H224.591V26.7279H220.865V7.04932H224.591V15.0782H232.594V7.04932H236.319V26.7279Z" fill="#3A3A3A"/>
<path d="M211.169 19.1187C211.169 19.6959 211.09 20.2469 210.959 20.8242H198.705C199.099 22.5034 200.831 23.9465 202.956 23.9465C204.53 23.9465 205.764 23.1069 206.367 22.1623H210.408C209.332 25.2322 206.341 27.1738 202.956 27.1738C198.417 27.1738 194.717 23.7104 194.717 19.1187C194.717 14.527 198.443 11.0898 203.009 11.0898C207.495 11.0898 211.169 14.632 211.169 19.1187ZM198.758 17.5969H207.18C206.813 15.7602 205.291 14.2384 203.009 14.2384C200.752 14.2384 199.125 15.7602 198.758 17.5969Z" fill="#3A3A3A"/>
<path d="M184.119 31.6605C180.052 31.6605 177.088 29.509 176.589 26.2555H180.499C180.84 27.6198 182.309 28.4857 184.119 28.4857C186.717 28.4857 188.37 27.305 188.37 24.7074V23.5267L188.291 23.4742C187.268 24.6287 185.536 25.7832 183.516 25.7832C179.265 25.7832 176.038 22.7133 176.038 18.4365C176.038 14.1859 179.265 11.0898 183.516 11.0898C185.956 11.0898 187.583 12.4542 188.344 13.6087L188.422 13.5562V11.5359H192.096V24.9435C192.096 29.2204 188.921 31.6605 184.119 31.6605ZM184.119 22.6608C186.455 22.6608 188.37 20.7979 188.37 18.4365C188.37 16.1013 186.455 14.2122 184.119 14.2122C181.784 14.2122 179.921 16.1013 179.921 18.4365C179.921 20.7979 181.784 22.6608 184.119 22.6608Z" fill="#3A3A3A"/>
<path d="M169.701 19.1188C169.701 16.6787 167.89 14.5009 165.266 14.5009C162.669 14.5009 160.832 16.6787 160.832 19.1188C160.832 21.5852 162.669 23.763 165.266 23.763C167.89 23.763 169.701 21.5852 169.701 19.1188ZM169.701 26.7279V24.4976H169.648C168.599 25.9145 166.972 27.1739 164.584 27.1739C160.019 27.1739 156.949 23.7367 156.949 19.1188C156.949 14.5272 160.019 11.09 164.584 11.09C166.972 11.09 168.599 12.3232 169.648 13.74H169.701V7.04932H173.426V26.7279H169.701Z" fill="#3A3A3A"/>
<path d="M154.849 19.1187C154.849 19.6959 154.77 20.2469 154.639 20.8242H142.386C142.779 22.5034 144.511 23.9465 146.636 23.9465C148.211 23.9465 149.444 23.1069 150.047 22.1623H154.088C153.012 25.2322 150.021 27.1738 146.636 27.1738C142.097 27.1738 138.398 23.7104 138.398 19.1187C138.398 14.527 142.124 11.0898 146.689 11.0898C151.176 11.0898 154.849 14.632 154.849 19.1187ZM142.438 17.5969H150.861C150.493 15.7602 148.972 14.2384 146.689 14.2384C144.432 14.2384 142.806 15.7602 142.438 17.5969Z" fill="#3A3A3A"/>
<path d="M132.056 26.7279V7.04932H135.781V26.7279H132.056Z" fill="#3A3A3A"/>
<path d="M106.635 11.5361H110.492L113.483 20.9556H113.536L116.553 11.5361H120.148L123.218 20.9556H123.27L126.235 11.5361H130.092L125.002 26.728H121.434L118.39 17.4922H118.337L115.268 26.728H111.699L106.635 11.5361Z" fill="#3A3A3A"/>
<path d="M101.953 19.1187C101.953 16.4162 100.274 14.3958 97.5189 14.3958C94.8164 14.3958 93.0847 16.4162 93.0847 19.1187C93.0847 21.8475 94.8164 23.8678 97.5189 23.8678C100.274 23.8678 101.953 21.8475 101.953 19.1187ZM105.836 19.1187C105.836 23.7366 102.137 27.1738 97.5189 27.1738C92.9272 27.1738 89.2014 23.7366 89.2014 19.1187C89.2014 14.527 92.9272 11.0898 97.5189 11.0898C102.137 11.0898 105.836 14.527 105.836 19.1187Z" fill="#3A3A3A"/>
<path d="M76.2075 26.7277H72.4817V11.5359H75.9189V13.7137H75.9714C76.7585 12.2706 78.359 11.0898 80.668 11.0898C84.1576 11.0898 86.5715 13.7399 86.5715 17.5444V26.7277H82.8457V17.8593C82.8457 15.9964 81.3764 14.5008 79.5397 14.5008C77.6768 14.5008 76.2075 15.9964 76.2075 17.8593V26.7277Z" fill="#3A3A3A"/>
<path d="M62.2108 16.8886L70.7644 26.7279H66.0416L59.8494 19.6436L58.1177 21.6115V26.7279H54.3918V7.04932H58.1177V16.1539L66.0416 7.04932H70.7644L62.2108 16.8886Z" fill="#3A3A3A"/>
</svg>
