<svg width="260" height="151" viewBox="0 0 260 151" fill="none" xmlns="http://www.w3.org/2000/svg">
<path d="M96.9567 15.687H91.4958L104.336 64.6873L96.9567 15.687Z" fill="#EF4933"/>
<path d="M103.008 9.34082H97.9163L107.288 60.9978L103.008 9.34082Z" fill="#18469C"/>
<path d="M110.75 5.55493H105.001L109.299 56.7389L110.75 5.55493Z" fill="#FF9500"/>
<path fill-rule="evenodd" clip-rule="evenodd" d="M136.219 0.934326H113.075V46.5584C113.075 54.9524 112.935 59.6906 111.838 63.0443C110.834 66.1178 108.973 68.1414 104.747 70.7764L102.291 72.3076L89.4106 22.0987L85.3159 23.1491L98.5283 74.6534L98.4797 74.6837H98.5361L98.5455 74.7201L98.6876 74.6837H136.219V53.316L148.738 74.6837H174.868L152.584 35.5625L170.437 17.7091L153.851 1.12293L136.219 18.7545V0.934326ZM117.302 46.5584V5.16162H131.992V28.9601L153.851 7.10122L164.459 17.7091L147.315 34.8532L167.595 70.4564H151.161L136.256 45.0152L131.992 52.1211V70.4564H112.114C113.834 68.7349 115.055 66.81 115.856 64.3579C117.208 60.2243 117.302 54.7172 117.302 46.5584Z" fill="#3A3A3A"/>
<path d="M244.161 104.965C244.161 107.876 246.298 110.447 249.394 110.447C252.46 110.447 254.628 107.876 254.628 104.965C254.628 102.085 252.46 99.5151 249.394 99.5151C246.298 99.5151 244.161 102.085 244.161 104.965ZM244.161 111.314V113.946H239.763V90.7202H244.161V98.617H244.223C245.461 96.9447 247.382 95.4892 250.2 95.4892C255.588 95.4892 259.211 99.546 259.211 104.965C259.211 110.416 255.588 114.472 250.2 114.472C247.382 114.472 245.461 112.986 244.223 111.314H244.161Z" fill="#3A3A3A"/>
<path d="M231.643 96.0156H236.04V113.946H231.984V111.376H231.922C230.993 113.079 229.104 114.472 226.378 114.472C222.26 114.472 219.411 111.345 219.411 106.854V96.0156H223.808V106.483C223.808 108.681 225.542 110.447 227.71 110.447C229.909 110.447 231.643 108.681 231.643 106.483V96.0156Z" fill="#3A3A3A"/>
<path d="M215.695 113.946H211.298V104.408H201.852V113.946H197.455V90.7202H201.852V100.196H211.298V90.7202H215.695V113.946Z" fill="#3A3A3A"/>
<path d="M186.011 104.965C186.011 105.647 185.918 106.297 185.763 106.978H171.301C171.765 108.96 173.809 110.663 176.318 110.663C178.176 110.663 179.631 109.672 180.343 108.558H185.112C183.843 112.181 180.312 114.472 176.318 114.472C170.96 114.472 166.594 110.385 166.594 104.965C166.594 99.546 170.991 95.4893 176.38 95.4893C181.675 95.4893 186.011 99.6699 186.011 104.965ZM171.363 103.169H181.303C180.87 101.002 179.074 99.2054 176.38 99.2054C173.716 99.2054 171.796 101.002 171.363 103.169Z" fill="#3A3A3A"/>
<path d="M154.085 119.768C149.285 119.768 145.786 117.229 145.198 113.389H149.812C150.214 114.999 151.949 116.021 154.085 116.021C157.151 116.021 159.102 114.627 159.102 111.562V110.168L159.009 110.106C157.802 111.469 155.758 112.831 153.373 112.831C148.356 112.831 144.547 109.208 144.547 104.16C144.547 99.1435 148.356 95.4893 153.373 95.4893C156.253 95.4893 158.173 97.0996 159.071 98.4622L159.164 98.4002V96.0157H163.5V111.84C163.5 116.888 159.753 119.768 154.085 119.768ZM154.085 109.146C156.842 109.146 159.102 106.947 159.102 104.16C159.102 101.404 156.842 99.1744 154.085 99.1744C151.329 99.1744 149.131 101.404 149.131 104.16C149.131 106.947 151.329 109.146 154.085 109.146Z" fill="#3A3A3A"/>
<path d="M137.067 104.965C137.067 102.085 134.931 99.5151 131.834 99.5151C128.768 99.5151 126.6 102.085 126.6 104.965C126.6 107.876 128.768 110.447 131.834 110.447C134.931 110.447 137.067 107.876 137.067 104.965ZM137.067 113.946V111.314H137.005C135.767 112.986 133.847 114.472 131.029 114.472C125.64 114.472 122.017 110.416 122.017 104.965C122.017 99.546 125.64 95.4892 131.029 95.4892C133.847 95.4892 135.767 96.9447 137.005 98.617H137.067V90.7202H141.465V113.946H137.067Z" fill="#3A3A3A"/>
<path d="M119.539 104.965C119.539 105.647 119.446 106.297 119.291 106.978H104.829C105.293 108.96 107.337 110.663 109.846 110.663C111.704 110.663 113.159 109.672 113.872 108.558H118.641C117.371 112.181 113.841 114.472 109.846 114.472C104.488 114.472 100.122 110.385 100.122 104.965C100.122 99.546 104.519 95.4893 109.908 95.4893C115.203 95.4893 119.539 99.6699 119.539 104.965ZM104.891 103.169H114.832C114.398 101.002 112.602 99.2054 109.908 99.2054C107.244 99.2054 105.324 101.002 104.891 103.169Z" fill="#3A3A3A"/>
<path d="M92.6365 113.946V90.7202H97.0339V113.946H92.6365Z" fill="#3A3A3A"/>
<path d="M62.634 96.0156H67.1863L70.7166 107.133H70.7785L74.3398 96.0156H78.5824L82.2056 107.133H82.2676L85.7669 96.0156H90.3192L84.3115 113.946H80.0998L76.5076 103.045H76.4456L72.8224 113.946H68.6108L62.634 96.0156Z" fill="#3A3A3A"/>
<path d="M57.1077 104.965C57.1077 101.776 55.1258 99.3912 51.8741 99.3912C48.6845 99.3912 46.6406 101.776 46.6406 104.965C46.6406 108.186 48.6845 110.571 51.8741 110.571C55.1258 110.571 57.1077 108.186 57.1077 104.965ZM61.6909 104.965C61.6909 110.416 57.3245 114.472 51.8741 114.472C46.4548 114.472 42.0574 110.416 42.0574 104.965C42.0574 99.546 46.4548 95.4893 51.8741 95.4893C57.3245 95.4893 61.6909 99.546 61.6909 104.965Z" fill="#3A3A3A"/>
<path d="M26.7214 113.946H22.324V96.0157H26.3807V98.586H26.4427C27.3717 96.8828 29.2607 95.4893 31.9859 95.4893C36.1046 95.4893 38.9537 98.617 38.9537 103.107V113.946H34.5562V103.479C34.5562 101.28 32.822 99.5151 30.6543 99.5151C28.4556 99.5151 26.7214 101.28 26.7214 103.479V113.946Z" fill="#3A3A3A"/>
<path d="M10.2015 102.333L20.297 113.946H14.7228L7.41443 105.585L5.37056 107.907V113.946H0.973145V90.7202H5.37056V101.466L14.7228 90.7202H20.297L10.2015 102.333Z" fill="#3A3A3A"/>
<path d="M217.865 147.117C217.594 147.117 217.361 147.02 217.167 146.825C216.973 146.631 216.875 146.398 216.875 146.127C216.875 145.856 216.973 145.623 217.167 145.429C217.361 145.234 217.594 145.137 217.865 145.137C218.136 145.137 218.369 145.234 218.564 145.429C218.758 145.623 218.855 145.856 218.855 146.127C218.855 146.307 218.809 146.472 218.717 146.622C218.63 146.772 218.51 146.893 218.36 146.985C218.213 147.073 218.049 147.117 217.865 147.117Z" fill="#EF4933"/>
<path d="M211.448 147.205C210.635 147.205 209.933 147.025 209.342 146.666C208.756 146.303 208.303 145.797 207.984 145.148C207.669 144.496 207.511 143.737 207.511 142.872C207.511 142.007 207.669 141.244 207.984 140.585C208.303 139.921 208.747 139.404 209.315 139.034C209.887 138.66 210.554 138.473 211.316 138.473C211.756 138.473 212.191 138.546 212.62 138.693C213.048 138.84 213.439 139.078 213.791 139.408C214.143 139.734 214.423 140.167 214.632 140.706C214.841 141.244 214.945 141.908 214.945 142.696V143.246H208.435V142.124H213.626C213.626 141.648 213.531 141.222 213.34 140.849C213.153 140.475 212.885 140.18 212.537 139.963C212.193 139.747 211.786 139.639 211.316 139.639C210.8 139.639 210.352 139.767 209.975 140.024C209.601 140.277 209.313 140.607 209.112 141.013C208.91 141.42 208.809 141.857 208.809 142.322V143.07C208.809 143.708 208.919 144.248 209.139 144.692C209.363 145.132 209.672 145.467 210.068 145.698C210.464 145.925 210.924 146.039 211.448 146.039C211.789 146.039 212.097 145.991 212.372 145.896C212.651 145.797 212.891 145.651 213.092 145.456C213.294 145.258 213.45 145.013 213.56 144.719L214.814 145.071C214.682 145.497 214.46 145.871 214.148 146.193C213.837 146.512 213.452 146.761 212.994 146.941C212.535 147.117 212.02 147.205 211.448 147.205Z" fill="#EF4933"/>
<path d="M206.046 138.583V139.683H201.669V138.583H206.046ZM202.945 136.56H204.243V144.609C204.243 144.976 204.296 145.251 204.402 145.434C204.512 145.614 204.651 145.735 204.82 145.797C204.992 145.856 205.174 145.885 205.364 145.885C205.507 145.885 205.625 145.878 205.716 145.863C205.808 145.845 205.881 145.83 205.936 145.819L206.2 146.985C206.112 147.018 205.989 147.051 205.832 147.084C205.674 147.12 205.474 147.139 205.232 147.139C204.866 147.139 204.507 147.06 204.155 146.902C203.807 146.745 203.517 146.505 203.286 146.182C203.059 145.859 202.945 145.453 202.945 144.961V136.56Z" fill="#EF4933"/>
<path d="M196.134 147.227C195.598 147.227 195.113 147.126 194.677 146.924C194.24 146.719 193.894 146.424 193.637 146.039C193.381 145.651 193.252 145.181 193.252 144.632C193.252 144.148 193.348 143.755 193.538 143.455C193.729 143.151 193.984 142.912 194.303 142.74C194.622 142.568 194.973 142.439 195.358 142.355C195.747 142.267 196.137 142.197 196.53 142.146C197.043 142.08 197.459 142.031 197.778 141.998C198.1 141.961 198.335 141.901 198.482 141.816C198.632 141.732 198.707 141.585 198.707 141.376V141.332C198.707 140.79 198.559 140.368 198.262 140.068C197.968 139.767 197.523 139.617 196.925 139.617C196.306 139.617 195.82 139.752 195.468 140.024C195.116 140.295 194.869 140.585 194.726 140.892L193.494 140.453C193.714 139.939 194.008 139.54 194.374 139.254C194.744 138.964 195.148 138.763 195.584 138.649C196.024 138.532 196.456 138.473 196.881 138.473C197.153 138.473 197.464 138.506 197.816 138.572C198.172 138.634 198.515 138.765 198.844 138.963C199.178 139.16 199.455 139.459 199.675 139.859C199.895 140.258 200.005 140.794 200.005 141.464V147.029H198.707V145.885H198.641C198.553 146.068 198.406 146.265 198.201 146.474C197.996 146.682 197.723 146.86 197.382 147.007C197.041 147.153 196.625 147.227 196.134 147.227ZM196.332 146.061C196.845 146.061 197.277 145.96 197.629 145.759C197.985 145.557 198.252 145.297 198.432 144.978C198.615 144.659 198.707 144.324 198.707 143.972V142.784C198.652 142.85 198.531 142.91 198.344 142.965C198.161 143.017 197.948 143.063 197.706 143.103C197.468 143.14 197.235 143.173 197.008 143.202C196.784 143.228 196.603 143.25 196.464 143.268C196.126 143.312 195.811 143.383 195.518 143.482C195.228 143.578 194.994 143.722 194.814 143.917C194.638 144.107 194.55 144.368 194.55 144.697C194.55 145.148 194.717 145.489 195.05 145.72C195.388 145.947 195.815 146.061 196.332 146.061Z" fill="#EF4933"/>
<path d="M192.193 138.583L189.07 147.029H187.75L184.627 138.583H186.034L188.366 145.313H188.454L190.785 138.583H192.193Z" fill="#EF4933"/>
<path d="M179.781 147.205C179.019 147.205 178.35 147.023 177.774 146.66C177.202 146.298 176.755 145.79 176.432 145.137C176.114 144.485 175.954 143.722 175.954 142.85C175.954 141.97 176.114 141.202 176.432 140.546C176.755 139.89 177.202 139.38 177.774 139.017C178.35 138.655 179.019 138.473 179.781 138.473C180.544 138.473 181.211 138.655 181.783 139.017C182.358 139.38 182.805 139.89 183.124 140.546C183.447 141.202 183.608 141.97 183.608 142.85C183.608 143.722 183.447 144.485 183.124 145.137C182.805 145.79 182.358 146.298 181.783 146.66C181.211 147.023 180.544 147.205 179.781 147.205ZM179.781 146.039C180.36 146.039 180.837 145.891 181.211 145.594C181.585 145.297 181.861 144.906 182.041 144.423C182.221 143.939 182.31 143.414 182.31 142.85C182.31 142.285 182.221 141.759 182.041 141.272C181.861 140.784 181.585 140.39 181.211 140.09C180.837 139.789 180.36 139.639 179.781 139.639C179.202 139.639 178.725 139.789 178.351 140.09C177.978 140.39 177.701 140.784 177.521 141.272C177.342 141.759 177.252 142.285 177.252 142.85C177.252 143.414 177.342 143.939 177.521 144.423C177.701 144.906 177.978 145.297 178.351 145.594C178.725 145.891 179.202 146.039 179.781 146.039Z" fill="#EF4933"/>
<path d="M168.59 141.948V147.029H167.292V138.583H168.546V139.903H168.656C168.854 139.474 169.155 139.129 169.558 138.869C169.961 138.605 170.482 138.473 171.119 138.473C171.691 138.473 172.192 138.59 172.621 138.825C173.049 139.056 173.383 139.408 173.621 139.881C173.86 140.35 173.979 140.944 173.979 141.662V147.029H172.681V141.75C172.681 141.087 172.509 140.57 172.164 140.2C171.82 139.826 171.347 139.639 170.746 139.639C170.331 139.639 169.961 139.729 169.635 139.908C169.312 140.088 169.058 140.35 168.871 140.695C168.684 141.039 168.59 141.457 168.59 141.948Z" fill="#EF4933"/>
<path d="M159.533 141.948V147.029H158.235V138.583H159.489V139.903H159.599C159.797 139.474 160.097 139.129 160.501 138.869C160.904 138.605 161.424 138.473 162.062 138.473C162.634 138.473 163.134 138.59 163.563 138.825C163.992 139.056 164.326 139.408 164.564 139.881C164.802 140.35 164.921 140.944 164.921 141.662V147.029H163.624V141.75C163.624 141.087 163.451 140.57 163.107 140.2C162.762 139.826 162.289 139.639 161.688 139.639C161.274 139.639 160.904 139.729 160.577 139.908C160.255 140.088 160 140.35 159.813 140.695C159.626 141.039 159.533 141.457 159.533 141.948Z" fill="#EF4933"/>
<path d="M155.677 135.768V147.029H154.313V135.768H155.677Z" fill="#EF4933"/>
<path d="M146.464 147.117C146.193 147.117 145.96 147.02 145.766 146.825C145.572 146.631 145.474 146.398 145.474 146.127C145.474 145.856 145.572 145.623 145.766 145.429C145.96 145.234 146.193 145.137 146.464 145.137C146.735 145.137 146.968 145.234 147.162 145.429C147.357 145.623 147.454 145.856 147.454 146.127C147.454 146.307 147.408 146.472 147.316 146.622C147.228 146.772 147.109 146.893 146.959 146.985C146.812 147.073 146.647 147.117 146.464 147.117Z" fill="#FF9500"/>
<path d="M140.047 147.205C139.234 147.205 138.532 147.025 137.941 146.666C137.355 146.303 136.902 145.797 136.583 145.148C136.268 144.496 136.11 143.737 136.11 142.872C136.11 142.007 136.268 141.244 136.583 140.585C136.902 139.921 137.346 139.404 137.914 139.034C138.486 138.66 139.153 138.473 139.915 138.473C140.355 138.473 140.79 138.546 141.218 138.693C141.647 138.84 142.038 139.078 142.39 139.408C142.742 139.734 143.022 140.167 143.231 140.706C143.44 141.244 143.544 141.908 143.544 142.696V143.246H137.034V142.124H142.225C142.225 141.648 142.129 141.222 141.939 140.849C141.752 140.475 141.484 140.18 141.136 139.963C140.791 139.747 140.385 139.639 139.915 139.639C139.398 139.639 138.951 139.767 138.574 140.024C138.2 140.277 137.912 140.607 137.71 141.013C137.509 141.42 137.408 141.857 137.408 142.322V143.07C137.408 143.708 137.518 144.248 137.738 144.692C137.962 145.132 138.271 145.467 138.667 145.698C139.063 145.925 139.523 146.039 140.047 146.039C140.388 146.039 140.696 145.991 140.971 145.896C141.25 145.797 141.49 145.651 141.691 145.456C141.893 145.258 142.049 145.013 142.159 144.719L143.412 145.071C143.28 145.497 143.059 145.871 142.747 146.193C142.435 146.512 142.051 146.761 141.592 146.941C141.134 147.117 140.619 147.205 140.047 147.205Z" fill="#FF9500"/>
<path d="M131.002 147.029V138.583H132.256V139.859H132.344C132.498 139.441 132.776 139.102 133.18 138.842C133.583 138.581 134.037 138.451 134.543 138.451C134.639 138.451 134.758 138.453 134.901 138.457C135.044 138.46 135.152 138.466 135.225 138.473V139.793C135.181 139.782 135.08 139.765 134.923 139.743C134.769 139.718 134.606 139.705 134.433 139.705C134.023 139.705 133.656 139.791 133.334 139.963C133.015 140.132 132.762 140.366 132.575 140.667C132.391 140.964 132.3 141.303 132.3 141.684V147.029H131.002Z" fill="#FF9500"/>
<path d="M125.194 147.205C124.432 147.205 123.763 147.023 123.187 146.66C122.616 146.298 122.168 145.79 121.846 145.137C121.527 144.485 121.367 143.722 121.367 142.85C121.367 141.97 121.527 141.202 121.846 140.546C122.168 139.89 122.616 139.38 123.187 139.017C123.763 138.655 124.432 138.473 125.194 138.473C125.957 138.473 126.624 138.655 127.196 139.017C127.771 139.38 128.219 139.89 128.538 140.546C128.86 141.202 129.021 141.97 129.021 142.85C129.021 143.722 128.86 144.485 128.538 145.137C128.219 145.79 127.771 146.298 127.196 146.66C126.624 147.023 125.957 147.205 125.194 147.205ZM125.194 146.039C125.774 146.039 126.25 145.891 126.624 145.594C126.998 145.297 127.275 144.906 127.454 144.423C127.634 143.939 127.724 143.414 127.724 142.85C127.724 142.285 127.634 141.759 127.454 141.272C127.275 140.784 126.998 140.39 126.624 140.09C126.25 139.789 125.774 139.639 125.194 139.639C124.615 139.639 124.139 139.789 123.765 140.09C123.391 140.39 123.114 140.784 122.935 141.272C122.755 141.759 122.665 142.285 122.665 142.85C122.665 143.414 122.755 143.939 122.935 144.423C123.114 144.906 123.391 145.297 123.765 145.594C124.139 145.891 124.615 146.039 125.194 146.039Z" fill="#FF9500"/>
<path d="M119.387 135.768V147.029H118.089V135.768H119.387Z" fill="#FF9500"/>
<path d="M108.653 150.196V138.583H109.907V139.925H110.061C110.156 139.778 110.288 139.591 110.457 139.364C110.629 139.133 110.875 138.928 111.194 138.748C111.516 138.565 111.952 138.473 112.502 138.473C113.213 138.473 113.84 138.651 114.383 139.007C114.925 139.362 115.349 139.866 115.653 140.519C115.957 141.171 116.109 141.941 116.109 142.828C116.109 143.722 115.957 144.498 115.653 145.154C115.349 145.806 114.927 146.312 114.388 146.671C113.849 147.027 113.228 147.205 112.524 147.205C111.982 147.205 111.547 147.115 111.221 146.935C110.895 146.752 110.644 146.545 110.468 146.314C110.292 146.079 110.156 145.885 110.061 145.731H109.951V150.196H108.653ZM109.929 142.806C109.929 143.444 110.022 144.007 110.209 144.494C110.396 144.978 110.669 145.357 111.029 145.632C111.388 145.903 111.828 146.039 112.348 146.039C112.891 146.039 113.344 145.896 113.706 145.61C114.073 145.321 114.348 144.932 114.531 144.445C114.718 143.953 114.812 143.407 114.812 142.806C114.812 142.212 114.72 141.677 114.537 141.2C114.357 140.72 114.084 140.341 113.717 140.062C113.355 139.78 112.898 139.639 112.348 139.639C111.82 139.639 111.377 139.773 111.018 140.04C110.658 140.304 110.387 140.674 110.204 141.151C110.021 141.624 109.929 142.175 109.929 142.806Z" fill="#FF9500"/>
<path d="M101.259 138.583L103.283 142.036L105.306 138.583H106.802L104.075 142.806L106.802 147.029H105.306L103.283 143.752L101.259 147.029H99.7637L102.447 142.806L99.7637 138.583H101.259Z" fill="#FF9500"/>
<path d="M91.2134 147.029V135.768H98.0096V136.977H92.577V140.782H97.6577V141.992H92.577V145.819H98.0975V147.029H91.2134Z" fill="#FF9500"/>
<path d="M83.3643 147.117C83.093 147.117 82.8602 147.02 82.6659 146.825C82.4717 146.631 82.3745 146.398 82.3745 146.127C82.3745 145.856 82.4717 145.623 82.6659 145.429C82.8602 145.234 83.093 145.137 83.3643 145.137C83.6355 145.137 83.8683 145.234 84.0626 145.429C84.2568 145.623 84.354 145.856 84.354 146.127C84.354 146.307 84.3082 146.472 84.2165 146.622C84.1285 146.772 84.0094 146.893 83.8591 146.985C83.7125 147.073 83.5475 147.117 83.3643 147.117Z" fill="#18469C"/>
<path d="M74.6587 141.948V147.029H73.3611V138.583H74.6147V139.903H74.7247C74.9227 139.474 75.2233 139.129 75.6265 138.869C76.0297 138.605 76.5502 138.473 77.1881 138.473C77.7599 138.473 78.2603 138.59 78.6892 138.825C79.118 139.056 79.4516 139.408 79.6899 139.881C79.9282 140.35 80.0473 140.944 80.0473 141.662V147.029H78.7496V141.75C78.7496 141.087 78.5774 140.57 78.2328 140.2C77.8882 139.826 77.4153 139.639 76.8142 139.639C76.3999 139.639 76.0297 139.729 75.7035 139.908C75.3809 140.088 75.1261 140.35 74.9392 140.695C74.7522 141.039 74.6587 141.457 74.6587 141.948Z" fill="#18469C"/>
<path d="M67.5999 147.029V138.583H68.8535V139.859H68.9415C69.0955 139.441 69.374 139.102 69.7773 138.842C70.1805 138.581 70.635 138.451 71.1409 138.451C71.2362 138.451 71.3554 138.453 71.4983 138.457C71.6413 138.46 71.7494 138.466 71.8227 138.473V139.793C71.7787 139.782 71.6779 139.765 71.5203 139.743C71.3664 139.718 71.2032 139.705 71.0309 139.705C70.6204 139.705 70.2538 139.791 69.9312 139.963C69.6123 140.132 69.3594 140.366 69.1724 140.667C68.9891 140.964 68.8975 141.303 68.8975 141.684V147.029H67.5999Z" fill="#18469C"/>
<path d="M61.3605 147.227C60.8253 147.227 60.3396 147.126 59.9034 146.924C59.4671 146.719 59.1207 146.424 58.8641 146.039C58.6075 145.651 58.4792 145.181 58.4792 144.632C58.4792 144.148 58.5746 143.755 58.7652 143.455C58.9558 143.151 59.2106 142.912 59.5295 142.74C59.8484 142.568 60.2003 142.439 60.5852 142.355C60.9737 142.267 61.3641 142.197 61.7564 142.146C62.2696 142.08 62.6856 142.031 63.0045 141.998C63.3271 141.961 63.5617 141.901 63.7084 141.816C63.8586 141.732 63.9338 141.585 63.9338 141.376V141.332C63.9338 140.79 63.7853 140.368 63.4884 140.068C63.1952 139.767 62.7498 139.617 62.1523 139.617C61.5328 139.617 61.0471 139.752 60.6952 140.024C60.3432 140.295 60.0958 140.585 59.9529 140.892L58.7212 140.453C58.9411 139.939 59.2344 139.54 59.6009 139.254C59.9712 138.964 60.3744 138.763 60.8106 138.649C61.2505 138.532 61.6831 138.473 62.1083 138.473C62.3795 138.473 62.6911 138.506 63.043 138.572C63.3986 138.634 63.7413 138.765 64.0713 138.963C64.4048 139.16 64.6816 139.459 64.9015 139.859C65.1215 140.258 65.2314 140.794 65.2314 141.464V147.029H63.9338V145.885H63.8678C63.7798 146.068 63.6332 146.265 63.4279 146.474C63.2227 146.682 62.9496 146.86 62.6086 147.007C62.2677 147.153 61.8517 147.227 61.3605 147.227ZM61.5584 146.061C62.0716 146.061 62.5042 145.96 62.8561 145.759C63.2117 145.557 63.4792 145.297 63.6589 144.978C63.8422 144.659 63.9338 144.324 63.9338 143.972V142.784C63.8788 142.85 63.7578 142.91 63.5709 142.965C63.3876 143.017 63.175 143.063 62.9331 143.103C62.6948 143.14 62.462 143.173 62.2347 143.202C62.0111 143.228 61.8297 143.25 61.6904 143.268C61.3531 143.312 61.0379 143.383 60.7446 143.482C60.4551 143.578 60.2204 143.722 60.0408 143.917C59.8649 144.107 59.7769 144.368 59.7769 144.697C59.7769 145.148 59.9437 145.489 60.2773 145.72C60.6145 145.947 61.0416 146.061 61.5584 146.061Z" fill="#18469C"/>
<path d="M53.4042 147.205C52.5905 147.205 51.8885 147.025 51.2983 146.666C50.7118 146.303 50.2591 145.797 49.9402 145.148C49.6249 144.496 49.4673 143.737 49.4673 142.872C49.4673 142.007 49.6249 141.244 49.9402 140.585C50.2591 139.921 50.7026 139.404 51.2708 139.034C51.8426 138.66 52.5098 138.473 53.2723 138.473C53.7122 138.473 54.1465 138.546 54.5754 138.693C55.0043 138.84 55.3947 139.078 55.7466 139.408C56.0985 139.734 56.3789 140.167 56.5879 140.706C56.7968 141.244 56.9013 141.908 56.9013 142.696V143.246H50.391V142.124H55.5817C55.5817 141.648 55.4863 141.222 55.2957 140.849C55.1088 140.475 54.8412 140.18 54.4929 139.963C54.1484 139.747 53.7415 139.639 53.2723 139.639C52.7554 139.639 52.3082 139.767 51.9306 140.024C51.5567 140.277 51.269 140.607 51.0674 141.013C50.8657 141.42 50.7649 141.857 50.7649 142.322V143.07C50.7649 143.708 50.8749 144.248 51.0948 144.692C51.3185 145.132 51.6282 145.467 52.0241 145.698C52.42 145.925 52.88 146.039 53.4042 146.039C53.7451 146.039 54.0531 145.991 54.328 145.896C54.6066 145.797 54.8467 145.651 55.0483 145.456C55.2499 145.258 55.4057 145.013 55.5157 144.719L56.7693 145.071C56.6374 145.497 56.4156 145.871 56.104 146.193C55.7924 146.512 55.4075 146.761 54.9493 146.941C54.4911 147.117 53.9761 147.205 53.4042 147.205Z" fill="#18469C"/>
<path d="M41.3293 147.029V135.768H42.693V145.819H47.9276V147.029H41.3293Z" fill="#18469C"/>
</svg>
