<svg width="274" height="35" viewBox="0 0 274 35" fill="none" xmlns="http://www.w3.org/2000/svg">
<path d="M5.46695 7.54736H3.01904L8.77492 29.5123L5.46695 7.54736Z" fill="#EF4933"/>
<path d="M8.17997 4.70264H5.89746L10.0986 27.8584L8.17997 4.70264Z" fill="#18469C"/>
<path d="M11.6503 3.00586H9.073L10.9999 25.9496L11.6503 3.00586Z" fill="#FF9500"/>
<path fill-rule="evenodd" clip-rule="evenodd" d="M23.0673 0.93457H12.6923V21.3861C12.6923 25.1488 12.6297 27.2727 12.1382 28.7761C11.6878 30.1538 10.8538 31.0609 8.95931 32.2421L7.85818 32.9286L2.08452 10.4219L0.249023 10.8927L6.17163 33.9801L6.15005 33.9935H6.17508L6.17931 34.01L6.24366 33.9935H23.0673V24.4152L28.6788 33.9935H40.3919L30.4028 16.457L38.4057 8.45404L30.9708 1.01911L23.0673 8.92266V0.93457ZM14.5873 21.3861V2.8295H21.1723V13.4974L30.9708 3.69895L35.7259 8.45404L28.0409 16.1391L37.1317 32.0986H29.7648L23.0835 20.6943L21.1723 23.8796V32.0986H12.2616C13.0328 31.3269 13.58 30.464 13.9394 29.3649C14.5451 27.512 14.5873 25.0434 14.5873 21.3861Z" fill="white"/>
<path d="M260.438 19.236C260.438 21.7024 262.248 23.8802 264.872 23.8802C267.47 23.8802 269.306 21.7024 269.306 19.236C269.306 16.7959 267.47 14.6181 264.872 14.6181C262.248 14.6181 260.438 16.7959 260.438 19.236ZM260.438 24.6148V26.8451H256.712V7.1665H260.438V13.8572H260.49C261.54 12.4404 263.166 11.2072 265.554 11.2072C270.12 11.2072 273.189 14.6444 273.189 19.236C273.189 23.8539 270.12 27.2911 265.554 27.2911C263.166 27.2911 261.54 26.0317 260.49 24.6148H260.438Z" fill="white"/>
<path d="M249.832 11.6533H253.558V26.8452H250.12V24.6674H250.068C249.281 26.1105 247.68 27.2912 245.371 27.2912C241.882 27.2912 239.468 24.6412 239.468 20.8366V11.6533H243.194V20.5218C243.194 22.3847 244.663 23.8803 246.5 23.8803C248.362 23.8803 249.832 22.3847 249.832 20.5218V11.6533Z" fill="white"/>
<path d="M236.319 26.8451H232.594V18.7637H224.591V26.8451H220.865V7.1665H224.591V15.1954H232.594V7.1665H236.319V26.8451Z" fill="white"/>
<path d="M211.169 19.2359C211.169 19.8131 211.09 20.3641 210.959 20.9414H198.705C199.099 22.6206 200.831 24.0637 202.956 24.0637C204.53 24.0637 205.764 23.2241 206.367 22.2795H210.408C209.332 25.3494 206.341 27.291 202.956 27.291C198.417 27.291 194.717 23.8275 194.717 19.2359C194.717 14.6442 198.443 11.207 203.009 11.207C207.495 11.207 211.169 14.7492 211.169 19.2359ZM198.758 17.7141H207.18C206.813 15.8774 205.291 14.3556 203.009 14.3556C200.752 14.3556 199.125 15.8774 198.758 17.7141Z" fill="white"/>
<path d="M184.119 31.7777C180.052 31.7777 177.088 29.6262 176.589 26.3726H180.499C180.84 27.737 182.309 28.6029 184.119 28.6029C186.717 28.6029 188.37 27.4222 188.37 24.8246V23.6439L188.291 23.5914C187.268 24.7459 185.536 25.9004 183.516 25.9004C179.265 25.9004 176.038 22.8305 176.038 18.5537C176.038 14.3031 179.265 11.207 183.516 11.207C185.956 11.207 187.583 12.5714 188.344 13.7259L188.422 13.6734V11.6531H192.096V25.0607C192.096 29.3375 188.921 31.7777 184.119 31.7777ZM184.119 22.778C186.455 22.778 188.37 20.9151 188.37 18.5537C188.37 16.2185 186.455 14.3294 184.119 14.3294C181.784 14.3294 179.921 16.2185 179.921 18.5537C179.921 20.9151 181.784 22.778 184.119 22.778Z" fill="white"/>
<path d="M169.701 19.236C169.701 16.7959 167.89 14.6181 165.266 14.6181C162.669 14.6181 160.832 16.7959 160.832 19.236C160.832 21.7024 162.669 23.8802 165.266 23.8802C167.89 23.8802 169.701 21.7024 169.701 19.236ZM169.701 26.8451V24.6148H169.648C168.599 26.0317 166.972 27.2911 164.584 27.2911C160.019 27.2911 156.949 23.8539 156.949 19.236C156.949 14.6444 160.019 11.2072 164.584 11.2072C166.972 11.2072 168.599 12.4404 169.648 13.8572H169.701V7.1665H173.426V26.8451H169.701Z" fill="white"/>
<path d="M154.849 19.2359C154.849 19.8131 154.77 20.3641 154.639 20.9414H142.386C142.779 22.6206 144.511 24.0637 146.636 24.0637C148.211 24.0637 149.444 23.2241 150.047 22.2795H154.088C153.012 25.3494 150.021 27.291 146.636 27.291C142.097 27.291 138.398 23.8275 138.398 19.2359C138.398 14.6442 142.124 11.207 146.689 11.207C151.176 11.207 154.849 14.7492 154.849 19.2359ZM142.438 17.7141H150.861C150.493 15.8774 148.972 14.3556 146.689 14.3556C144.432 14.3556 142.806 15.8774 142.438 17.7141Z" fill="white"/>
<path d="M132.056 26.8451V7.1665H135.781V26.8451H132.056Z" fill="white"/>
<path d="M106.635 11.6533H110.492L113.483 21.0728H113.536L116.553 11.6533H120.148L123.218 21.0728H123.27L126.235 11.6533H130.092L125.002 26.8452H121.434L118.39 17.6094H118.337L115.268 26.8452H111.699L106.635 11.6533Z" fill="white"/>
<path d="M101.953 19.2359C101.953 16.5334 100.274 14.513 97.5189 14.513C94.8164 14.513 93.0847 16.5334 93.0847 19.2359C93.0847 21.9646 94.8164 23.985 97.5189 23.985C100.274 23.985 101.953 21.9646 101.953 19.2359ZM105.836 19.2359C105.836 23.8538 102.137 27.291 97.5189 27.291C92.9272 27.291 89.2014 23.8538 89.2014 19.2359C89.2014 14.6442 92.9272 11.207 97.5189 11.207C102.137 11.207 105.836 14.6442 105.836 19.2359Z" fill="white"/>
<path d="M76.2075 26.8449H72.4817V11.6531H75.9189V13.8308H75.9714C76.7585 12.3877 78.359 11.207 80.668 11.207C84.1576 11.207 86.5715 13.8571 86.5715 17.6616V26.8449H82.8457V17.9765C82.8457 16.1136 81.3764 14.618 79.5397 14.618C77.6768 14.618 76.2075 16.1136 76.2075 17.9765V26.8449Z" fill="white"/>
<path d="M62.2108 17.0058L70.7644 26.8451H66.0416L59.8494 19.7608L58.1177 21.7286V26.8451H54.3918V7.1665H58.1177V16.2711L66.0416 7.1665H70.7644L62.2108 17.0058Z" fill="white"/>
</svg>
