<svg width="49" height="49" viewBox="0 0 49 49" fill="none" xmlns="http://www.w3.org/2000/svg">
<path d="M10.1101 14.468H7.67676L13.3983 36.302L10.1101 14.468Z" fill="#EF4933"/>
<path d="M12.8065 11.6399H10.5376L14.7137 34.6577L12.8065 11.6399Z" fill="#18469C"/>
<path d="M16.2563 9.95312H13.6943L15.6098 32.7601L16.2563 9.95312Z" fill="#FF9500"/>
<path fill-rule="evenodd" clip-rule="evenodd" d="M27.6049 7.89429H17.2918V28.2239C17.2918 31.9642 17.2295 34.0754 16.741 35.5698C16.2933 36.9393 15.4643 37.841 13.581 39.0152L12.4867 39.6975L6.74741 17.3249L4.92285 17.7929L10.8102 40.7427L10.7885 40.7562H10.8136L10.8178 40.7724L10.8811 40.7562H27.6049V31.235L33.183 40.7562H44.8262L34.8966 23.3242L42.8519 15.3689L35.4613 7.97832L27.6049 15.8348V7.89429ZM19.1754 28.2239V9.77792H25.7212V20.3823L35.4613 10.6422L40.188 15.3689L32.5488 23.0082L41.5855 38.8726H34.2625L27.621 27.5362L25.7212 30.7026V38.8726H16.8636C17.6302 38.1055 18.1742 37.2477 18.5314 36.1551C19.1335 34.3133 19.1754 31.8594 19.1754 28.2239Z" fill="white"/>
</svg>
