<svg width="219" height="26" viewBox="0 0 219 26" fill="none" xmlns="http://www.w3.org/2000/svg">
<path d="M206.196 12.6887C206.196 15.155 208.007 17.3328 210.631 17.3328C213.228 17.3328 215.065 15.155 215.065 12.6887C215.065 10.2485 213.228 8.07075 210.631 8.07075C208.007 8.07075 206.196 10.2485 206.196 12.6887ZM206.196 18.0675V20.2977H202.47V0.619141H206.196V7.30985H206.249C207.298 5.89299 208.925 4.6598 211.313 4.6598C215.878 4.6598 218.948 8.09699 218.948 12.6887C218.948 17.3066 215.878 20.7437 211.313 20.7437C208.925 20.7437 207.298 19.4843 206.249 18.0675H206.196Z" fill="#3A3A3A"/>
<path d="M195.59 5.10583H199.316V20.2977H195.879V18.1199H195.826C195.039 19.563 193.439 20.7437 191.13 20.7437C187.64 20.7437 185.226 18.0937 185.226 14.2892V5.10583H188.952V13.9743C188.952 15.8372 190.421 17.3328 192.258 17.3328C194.121 17.3328 195.59 15.8372 195.59 13.9743V5.10583Z" fill="#3A3A3A"/>
<path d="M182.078 20.2977H178.352V12.2164H170.349V20.2977H166.624V0.619141H170.349V8.64799H178.352V0.619141H182.078V20.2977Z" fill="#3A3A3A"/>
<path d="M156.927 12.6886C156.927 13.2659 156.848 13.8169 156.717 14.3941H144.464C144.858 16.0734 146.589 17.5164 148.715 17.5164C150.289 17.5164 151.522 16.6768 152.126 15.7323H156.166C155.09 18.8021 152.099 20.7437 148.715 20.7437C144.175 20.7437 140.476 17.2803 140.476 12.6886C140.476 8.09698 144.202 4.65979 148.767 4.65979C153.254 4.65979 156.927 8.20193 156.927 12.6886ZM144.516 11.1668H152.939C152.572 9.33017 151.05 7.80836 148.767 7.80836C146.511 7.80836 144.884 9.33017 144.516 11.1668Z" fill="#3A3A3A"/>
<path d="M129.878 25.2304C125.811 25.2304 122.846 23.0789 122.347 19.8254H126.257C126.598 21.1898 128.067 22.0556 129.878 22.0556C132.475 22.0556 134.128 20.8749 134.128 18.2774V17.0966L134.05 17.0442C133.026 18.1986 131.295 19.3531 129.274 19.3531C125.024 19.3531 121.796 16.2833 121.796 12.0065C121.796 7.75588 125.024 4.65979 129.274 4.65979C131.714 4.65979 133.341 6.02417 134.102 7.17865L134.181 7.12617V5.10584H137.854V18.5135C137.854 22.7903 134.679 25.2304 129.878 25.2304ZM129.878 16.2308C132.213 16.2308 134.128 14.3679 134.128 12.0065C134.128 9.67126 132.213 7.78212 129.878 7.78212C127.543 7.78212 125.68 9.67126 125.68 12.0065C125.68 14.3679 127.543 16.2308 129.878 16.2308Z" fill="#3A3A3A"/>
<path d="M115.459 12.6887C115.459 10.2485 113.649 8.07075 111.025 8.07075C108.427 8.07075 106.591 10.2485 106.591 12.6887C106.591 15.155 108.427 17.3328 111.025 17.3328C113.649 17.3328 115.459 15.155 115.459 12.6887ZM115.459 20.2977V18.0675H115.407C114.357 19.4843 112.73 20.7437 110.343 20.7437C105.777 20.7437 102.707 17.3066 102.707 12.6887C102.707 8.09699 105.777 4.6598 110.343 4.6598C112.73 4.6598 114.357 5.89299 115.407 7.30985H115.459V0.619141H119.185V20.2977H115.459Z" fill="#3A3A3A"/>
<path d="M100.607 12.6886C100.607 13.2659 100.529 13.8169 100.397 14.3941H88.1442C88.5378 16.0734 90.2695 17.5164 92.3948 17.5164C93.969 17.5164 95.2022 16.6768 95.8057 15.7323H99.8464C98.7706 18.8021 95.7795 20.7437 92.3948 20.7437C87.8556 20.7437 84.156 17.2803 84.156 12.6886C84.156 8.09698 87.8818 4.65979 92.4472 4.65979C96.9339 4.65979 100.607 8.20193 100.607 12.6886ZM88.1967 11.1668H96.6191C96.2518 9.33017 94.7299 7.80836 92.4472 7.80836C90.1908 7.80836 88.564 9.33017 88.1967 11.1668Z" fill="#3A3A3A"/>
<path d="M77.814 20.2977V0.619141H81.5398V20.2977H77.814Z" fill="#3A3A3A"/>
<path d="M52.3938 5.10583H56.2508L59.2419 14.5253H59.2944L62.3118 5.10583H65.9064L68.9763 14.5253H69.0287L71.9936 5.10583H75.8506L70.7605 20.2977H67.1921L64.1485 11.0619H64.096L61.0261 20.2977H57.4577L52.3938 5.10583Z" fill="#3A3A3A"/>
<path d="M47.7114 12.6886C47.7114 9.98612 46.0322 7.96579 43.2772 7.96579C40.5747 7.96579 38.843 9.98612 38.843 12.6886C38.843 15.4174 40.5747 17.4377 43.2772 17.4377C46.0322 17.4377 47.7114 15.4174 47.7114 12.6886ZM51.5947 12.6886C51.5947 17.3065 47.8951 20.7437 43.2772 20.7437C38.6855 20.7437 34.9597 17.3065 34.9597 12.6886C34.9597 8.09698 38.6855 4.65979 43.2772 4.65979C47.8951 4.65979 51.5947 8.09698 51.5947 12.6886Z" fill="#3A3A3A"/>
<path d="M21.9658 20.2977H18.24V5.10584H21.6772V7.2836H21.7297C22.5168 5.8405 24.1173 4.65979 26.4263 4.65979C29.9159 4.65979 32.3298 7.30984 32.3298 11.1144V20.2977H28.604V11.4292C28.604 9.56631 27.1347 8.07074 25.298 8.07074C23.4351 8.07074 21.9658 9.56631 21.9658 11.4292V20.2977Z" fill="#3A3A3A"/>
<path d="M7.96909 10.4584L16.5227 20.2977H11.7999L5.60767 13.2134L3.87595 15.1813V20.2977H0.150146V0.619141H3.87595V9.72375L11.7999 0.619141H16.5227L7.96909 10.4584Z" fill="#3A3A3A"/>
</svg>
