<svg width="259" height="60" viewBox="0 0 259 60" fill="none" xmlns="http://www.w3.org/2000/svg">
<path d="M243.188 14.2452C243.188 17.1561 245.324 19.7265 248.421 19.7265C251.487 19.7265 253.655 17.1561 253.655 14.2452C253.655 11.3652 251.487 8.79484 248.421 8.79484C245.324 8.79484 243.188 11.3652 243.188 14.2452ZM243.188 20.5935V23.2258H238.79V0H243.188V7.89677H243.25C244.488 6.22452 246.408 4.76903 249.226 4.76903C254.615 4.76903 258.238 8.82581 258.238 14.2452C258.238 19.6955 254.615 23.7523 249.226 23.7523C246.408 23.7523 244.488 22.2658 243.25 20.5935H243.188Z" fill="#3A3A3A"/>
<path d="M230.67 5.29541H235.067V23.2257H231.01V20.6554H230.948C230.019 22.3586 228.13 23.7522 225.405 23.7522C221.287 23.7522 218.438 20.6244 218.438 16.1341V5.29541H222.835V15.7625C222.835 17.9612 224.569 19.7264 226.737 19.7264C228.936 19.7264 230.67 17.9612 230.67 15.7625V5.29541Z" fill="#3A3A3A"/>
<path d="M214.722 23.2258H210.325V13.6877H200.879V23.2258H196.482V0H200.879V9.47613H210.325V0H214.722V23.2258Z" fill="#3A3A3A"/>
<path d="M185.037 14.2452C185.037 14.9265 184.944 15.5768 184.79 16.2581H170.328C170.792 18.24 172.836 19.9432 175.344 19.9432C177.203 19.9432 178.658 18.9523 179.37 17.8374H184.139C182.87 21.4607 179.339 23.7523 175.344 23.7523C169.987 23.7523 165.621 19.6645 165.621 14.2452C165.621 8.82582 170.018 4.76904 175.406 4.76904C180.702 4.76904 185.037 8.94969 185.037 14.2452ZM170.39 12.449H180.33C179.897 10.2813 178.101 8.48517 175.406 8.48517C172.743 8.48517 170.823 10.2813 170.39 12.449Z" fill="#3A3A3A"/>
<path d="M153.112 29.0478C148.312 29.0478 144.813 26.5084 144.225 22.6684H148.839C149.241 24.2787 150.976 25.3007 153.112 25.3007C156.178 25.3007 158.129 23.9071 158.129 20.8413V19.4478L158.036 19.3858C156.828 20.7484 154.785 22.111 152.4 22.111C147.383 22.111 143.574 18.4878 143.574 13.44C143.574 8.42324 147.383 4.76904 152.4 4.76904C155.28 4.76904 157.2 6.37936 158.098 7.74195L158.191 7.68001V5.29549H162.526V21.12C162.526 26.1678 158.779 29.0478 153.112 29.0478ZM153.112 18.4258C155.868 18.4258 158.129 16.2271 158.129 13.44C158.129 10.6839 155.868 8.4542 153.112 8.4542C150.356 8.4542 148.157 10.6839 148.157 13.44C148.157 16.2271 150.356 18.4258 153.112 18.4258Z" fill="#3A3A3A"/>
<path d="M136.094 14.2452C136.094 11.3652 133.957 8.79484 130.861 8.79484C127.795 8.79484 125.627 11.3652 125.627 14.2452C125.627 17.1561 127.795 19.7265 130.861 19.7265C133.957 19.7265 136.094 17.1561 136.094 14.2452ZM136.094 23.2258V20.5935H136.032C134.794 22.2658 132.874 23.7523 130.056 23.7523C124.667 23.7523 121.044 19.6955 121.044 14.2452C121.044 8.82581 124.667 4.76903 130.056 4.76903C132.874 4.76903 134.794 6.22452 136.032 7.89677H136.094V0H140.492V23.2258H136.094Z" fill="#3A3A3A"/>
<path d="M118.565 14.2452C118.565 14.9265 118.473 15.5768 118.318 16.2581H103.856C104.32 18.24 106.364 19.9432 108.873 19.9432C110.731 19.9432 112.186 18.9523 112.898 17.8374H117.667C116.398 21.4607 112.867 23.7523 108.873 23.7523C103.515 23.7523 99.1487 19.6645 99.1487 14.2452C99.1487 8.82582 103.546 4.76904 108.934 4.76904C114.23 4.76904 118.565 8.94969 118.565 14.2452ZM103.918 12.449H113.858C113.425 10.2813 111.629 8.48517 108.934 8.48517C106.271 8.48517 104.351 10.2813 103.918 12.449Z" fill="#3A3A3A"/>
<path d="M91.6633 23.2258V0H96.0608V23.2258H91.6633Z" fill="#3A3A3A"/>
<path d="M61.6609 5.29541H66.2132L69.7435 16.4128H69.8054L73.3667 5.29541H77.6093L81.2325 16.4128H81.2944L84.7938 5.29541H89.3461L83.3383 23.2257H79.1267L75.5344 12.3251H75.4725L71.8493 23.2257H67.6377L61.6609 5.29541Z" fill="#3A3A3A"/>
<path d="M56.1346 14.2452C56.1346 11.0555 54.1526 8.67098 50.901 8.67098C47.7113 8.67098 45.6675 11.0555 45.6675 14.2452C45.6675 17.4658 47.7113 19.8503 50.901 19.8503C54.1526 19.8503 56.1346 17.4658 56.1346 14.2452ZM60.7178 14.2452C60.7178 19.6955 56.3513 23.7523 50.901 23.7523C45.4816 23.7523 41.0842 19.6955 41.0842 14.2452C41.0842 8.82582 45.4816 4.76904 50.901 4.76904C56.3513 4.76904 60.7178 8.82582 60.7178 14.2452Z" fill="#3A3A3A"/>
<path d="M25.7482 23.2258H21.3508V5.29549H25.4076V7.86582H25.4695C26.3986 6.16259 28.2876 4.76904 31.0128 4.76904C35.1315 4.76904 37.9805 7.89678 37.9805 12.3871V23.2258H33.5831V12.7587C33.5831 10.56 31.8489 8.79485 29.6812 8.79485C27.4824 8.79485 25.7482 10.56 25.7482 12.7587V23.2258Z" fill="#3A3A3A"/>
<path d="M9.22839 11.6129L19.3239 23.2258H13.7497L6.44129 14.8645L4.39742 17.1871V23.2258H0V0H4.39742V10.7458L13.7497 0H19.3239L9.22839 11.6129Z" fill="#3A3A3A"/>
<path d="M216.892 56.397C216.621 56.397 216.388 56.2998 216.194 56.1055C215.999 55.9112 215.902 55.6785 215.902 55.4072C215.902 55.136 215.999 54.9032 216.194 54.7089C216.388 54.5146 216.621 54.4175 216.892 54.4175C217.163 54.4175 217.396 54.5146 217.59 54.7089C217.785 54.9032 217.882 55.136 217.882 55.4072C217.882 55.5868 217.836 55.7518 217.744 55.9021C217.656 56.0524 217.537 56.1733 217.387 56.265C217.24 56.353 217.075 56.397 216.892 56.397Z" fill="#EF4933"/>
<path d="M210.475 56.4848C209.661 56.4848 208.96 56.3052 208.369 55.946C207.783 55.5831 207.33 55.0772 207.011 54.4284C206.696 53.7759 206.538 53.0171 206.538 52.152C206.538 51.2869 206.696 50.5244 207.011 49.8646C207.33 49.2011 207.774 48.6843 208.342 48.314C208.914 47.9401 209.581 47.7532 210.343 47.7532C210.783 47.7532 211.218 47.8265 211.646 47.9731C212.075 48.1197 212.466 48.358 212.818 48.6879C213.17 49.0142 213.45 49.4467 213.659 49.9856C213.868 50.5244 213.972 51.1879 213.972 51.976V52.5259H207.462V51.4042H212.653C212.653 50.9277 212.557 50.5024 212.367 50.1285C212.18 49.7546 211.912 49.4596 211.564 49.2433C211.219 49.027 210.813 48.9189 210.343 48.9189C209.826 48.9189 209.379 49.0472 209.002 49.3038C208.628 49.5567 208.34 49.8866 208.138 50.2935C207.937 50.7004 207.836 51.1366 207.836 51.6021V52.3499C207.836 52.9878 207.946 53.5285 208.166 53.972C208.39 54.4119 208.699 54.7473 209.095 54.9782C209.491 55.2055 209.951 55.3192 210.475 55.3192C210.816 55.3192 211.124 55.2715 211.399 55.1762C211.678 55.0772 211.918 54.9306 212.119 54.7363C212.321 54.5384 212.477 54.2928 212.587 53.9995L213.84 54.3514C213.708 54.7766 213.487 55.1505 213.175 55.4731C212.863 55.792 212.479 56.0413 212.02 56.2209C211.562 56.3969 211.047 56.4848 210.475 56.4848Z" fill="#EF4933"/>
<path d="M205.073 47.8631V48.9628H200.696V47.8631H205.073ZM201.972 45.8396H203.27V53.8895C203.27 54.256 203.323 54.5309 203.429 54.7142C203.539 54.8939 203.678 55.0148 203.847 55.0771C204.019 55.1358 204.201 55.1651 204.391 55.1651C204.534 55.1651 204.652 55.1578 204.743 55.1431C204.835 55.1248 204.908 55.1101 204.963 55.0991L205.227 56.2648C205.139 56.2978 205.016 56.3308 204.859 56.3638C204.701 56.4004 204.501 56.4188 204.259 56.4188C203.893 56.4188 203.534 56.34 203.182 56.1823C202.833 56.0247 202.544 55.7846 202.313 55.462C202.086 55.1395 201.972 54.7326 201.972 54.2414V45.8396Z" fill="#EF4933"/>
<path d="M195.161 56.5068C194.625 56.5068 194.14 56.406 193.703 56.2044C193.267 55.9991 192.921 55.7041 192.664 55.3192C192.408 54.9306 192.279 54.4614 192.279 53.9115C192.279 53.4277 192.375 53.0354 192.565 52.7348C192.756 52.4306 193.011 52.1923 193.33 52.02C193.648 51.8477 194 51.7194 194.385 51.6351C194.774 51.5472 195.164 51.4775 195.556 51.4262C196.07 51.3602 196.486 51.3107 196.805 51.2777C197.127 51.2411 197.362 51.1806 197.508 51.0963C197.659 51.012 197.734 50.8653 197.734 50.6564V50.6124C197.734 50.0699 197.585 49.6483 197.288 49.3477C196.995 49.0472 196.55 48.8969 195.952 48.8969C195.333 48.8969 194.847 49.0325 194.495 49.3038C194.143 49.575 193.896 49.8646 193.753 50.1725L192.521 49.7326C192.741 49.2194 193.034 48.8199 193.401 48.534C193.771 48.2444 194.174 48.0428 194.611 47.9291C195.051 47.8118 195.483 47.7532 195.908 47.7532C196.18 47.7532 196.491 47.7862 196.843 47.8521C197.199 47.9145 197.541 48.0446 197.871 48.2425C198.205 48.4405 198.482 48.7392 198.702 49.1388C198.922 49.5384 199.031 50.0736 199.031 50.7444V56.3089H197.734V55.1652H197.668C197.58 55.3485 197.433 55.5446 197.228 55.7535C197.023 55.9625 196.75 56.1403 196.409 56.2869C196.068 56.4335 195.652 56.5068 195.161 56.5068ZM195.358 55.3412C195.872 55.3412 196.304 55.2403 196.656 55.0387C197.012 54.8371 197.279 54.5769 197.459 54.2579C197.642 53.939 197.734 53.6036 197.734 53.2517V52.064C197.679 52.13 197.558 52.1905 197.371 52.2455C197.188 52.2968 196.975 52.3426 196.733 52.3829C196.495 52.4196 196.262 52.4526 196.035 52.4819C195.811 52.5076 195.63 52.5296 195.49 52.5479C195.153 52.5919 194.838 52.6634 194.545 52.7623C194.255 52.8576 194.021 53.0024 193.841 53.1967C193.665 53.3873 193.577 53.6476 193.577 53.9775C193.577 54.4284 193.744 54.7693 194.077 55.0002C194.415 55.2275 194.842 55.3412 195.358 55.3412Z" fill="#EF4933"/>
<path d="M191.22 47.863L188.096 56.3088H186.777L183.654 47.863H185.061L187.393 54.5932H187.481L189.812 47.863H191.22Z" fill="#EF4933"/>
<path d="M178.808 56.4848C178.045 56.4848 177.376 56.3034 176.801 55.9405C176.229 55.5776 175.782 55.0699 175.459 54.4174C175.14 53.7649 174.981 53.0024 174.981 52.13C174.981 51.2502 175.14 50.4823 175.459 49.8261C175.782 49.17 176.229 48.6604 176.801 48.2975C177.376 47.9346 178.045 47.7532 178.808 47.7532C179.57 47.7532 180.238 47.9346 180.809 48.2975C181.385 48.6604 181.832 49.17 182.151 49.8261C182.474 50.4823 182.635 51.2502 182.635 52.13C182.635 53.0024 182.474 53.7649 182.151 54.4174C181.832 55.0699 181.385 55.5776 180.809 55.9405C180.238 56.3034 179.57 56.4848 178.808 56.4848ZM178.808 55.3192C179.387 55.3192 179.864 55.1707 180.238 54.8738C180.611 54.5769 180.888 54.1865 181.068 53.7026C181.247 53.2187 181.337 52.6945 181.337 52.13C181.337 51.5655 181.247 51.0395 181.068 50.5519C180.888 50.0644 180.611 49.6703 180.238 49.3697C179.864 49.0692 179.387 48.9189 178.808 48.9189C178.229 48.9189 177.752 49.0692 177.378 49.3697C177.004 49.6703 176.728 50.0644 176.548 50.5519C176.368 51.0395 176.279 51.5655 176.279 52.13C176.279 52.6945 176.368 53.2187 176.548 53.7026C176.728 54.1865 177.004 54.5769 177.378 54.8738C177.752 55.1707 178.229 55.3192 178.808 55.3192Z" fill="#EF4933"/>
<path d="M167.617 51.2282V56.3089H166.319V47.8631H167.573V49.1828H167.683C167.881 48.7539 168.182 48.4093 168.585 48.1491C168.988 47.8851 169.508 47.7532 170.146 47.7532C170.718 47.7532 171.219 47.8705 171.647 48.1051C172.076 48.336 172.41 48.6879 172.648 49.1608C172.886 49.63 173.006 50.2238 173.006 50.9423V56.3089H171.708V51.0303C171.708 50.3668 171.536 49.8499 171.191 49.4797C170.846 49.1058 170.374 48.9189 169.772 48.9189C169.358 48.9189 168.988 49.0087 168.662 49.1883C168.339 49.3679 168.084 49.63 167.897 49.9746C167.71 50.3192 167.617 50.737 167.617 51.2282Z" fill="#EF4933"/>
<path d="M158.56 51.2282V56.3089H157.262V47.8631H158.516V49.1828H158.626C158.824 48.7539 159.124 48.4093 159.527 48.1491C159.931 47.8851 160.451 47.7532 161.089 47.7532C161.661 47.7532 162.161 47.8705 162.59 48.1051C163.019 48.336 163.353 48.6879 163.591 49.1608C163.829 49.63 163.948 50.2238 163.948 50.9423V56.3089H162.651V51.0303C162.651 50.3668 162.478 49.8499 162.134 49.4797C161.789 49.1058 161.316 48.9189 160.715 48.9189C160.301 48.9189 159.931 49.0087 159.604 49.1883C159.282 49.3679 159.027 49.63 158.84 49.9746C158.653 50.3192 158.56 50.737 158.56 51.2282Z" fill="#EF4933"/>
<path d="M154.704 45.0479V56.3088H153.34V45.0479H154.704Z" fill="#EF4933"/>
<path d="M145.491 56.397C145.22 56.397 144.987 56.2998 144.793 56.1055C144.598 55.9112 144.501 55.6785 144.501 55.4072C144.501 55.136 144.598 54.9032 144.793 54.7089C144.987 54.5146 145.22 54.4175 145.491 54.4175C145.762 54.4175 145.995 54.5146 146.189 54.7089C146.384 54.9032 146.481 55.136 146.481 55.4072C146.481 55.5868 146.435 55.7518 146.343 55.9021C146.255 56.0524 146.136 56.1733 145.986 56.265C145.839 56.353 145.674 56.397 145.491 56.397Z" fill="#FF9500"/>
<path d="M139.074 56.4848C138.26 56.4848 137.558 56.3052 136.968 55.946C136.382 55.5831 135.929 55.0772 135.61 54.4284C135.295 53.7759 135.137 53.0171 135.137 52.152C135.137 51.2869 135.295 50.5244 135.61 49.8646C135.929 49.2011 136.373 48.6843 136.941 48.314C137.513 47.9401 138.18 47.7532 138.942 47.7532C139.382 47.7532 139.816 47.8265 140.245 47.9731C140.674 48.1197 141.065 48.358 141.417 48.6879C141.768 49.0142 142.049 49.4467 142.258 49.9856C142.467 50.5244 142.571 51.1879 142.571 51.976V52.5259H136.061V51.4042H141.252C141.252 50.9277 141.156 50.5024 140.966 50.1285C140.779 49.7546 140.511 49.4596 140.163 49.2433C139.818 49.027 139.411 48.9189 138.942 48.9189C138.425 48.9189 137.978 49.0472 137.601 49.3038C137.227 49.5567 136.939 49.8866 136.737 50.2935C136.536 50.7004 136.435 51.1366 136.435 51.6021V52.3499C136.435 52.9878 136.545 53.5285 136.765 53.972C136.988 54.4119 137.298 54.7473 137.694 54.9782C138.09 55.2055 138.55 55.3192 139.074 55.3192C139.415 55.3192 139.723 55.2715 139.998 55.1762C140.277 55.0772 140.517 54.9306 140.718 54.7363C140.92 54.5384 141.076 54.2928 141.186 53.9995L142.439 54.3514C142.307 54.7766 142.086 55.1505 141.774 55.4731C141.462 55.792 141.077 56.0413 140.619 56.2209C140.161 56.3969 139.646 56.4848 139.074 56.4848Z" fill="#FF9500"/>
<path d="M130.029 56.3089V47.8632H131.283V49.1388H131.371C131.525 48.7209 131.803 48.3819 132.206 48.1216C132.61 47.8613 133.064 47.7312 133.57 47.7312C133.665 47.7312 133.785 47.733 133.928 47.7367C134.07 47.7404 134.179 47.7459 134.252 47.7532V49.0728C134.208 49.0618 134.107 49.0454 133.95 49.0234C133.796 48.9977 133.632 48.9849 133.46 48.9849C133.05 48.9849 132.683 49.071 132.36 49.2433C132.042 49.4119 131.789 49.6465 131.602 49.9471C131.418 50.244 131.327 50.5831 131.327 50.9643V56.3089H130.029Z" fill="#FF9500"/>
<path d="M124.221 56.4848C123.459 56.4848 122.79 56.3034 122.214 55.9405C121.642 55.5776 121.195 55.0699 120.873 54.4174C120.554 53.7649 120.394 53.0024 120.394 52.13C120.394 51.2502 120.554 50.4823 120.873 49.8261C121.195 49.17 121.642 48.6604 122.214 48.2975C122.79 47.9346 123.459 47.7532 124.221 47.7532C124.984 47.7532 125.651 47.9346 126.223 48.2975C126.798 48.6604 127.245 49.17 127.564 49.8261C127.887 50.4823 128.048 51.2502 128.048 52.13C128.048 53.0024 127.887 53.7649 127.564 54.4174C127.245 55.0699 126.798 55.5776 126.223 55.9405C125.651 56.3034 124.984 56.4848 124.221 56.4848ZM124.221 55.3192C124.8 55.3192 125.277 55.1707 125.651 54.8738C126.025 54.5769 126.302 54.1865 126.481 53.7026C126.661 53.2187 126.751 52.6945 126.751 52.13C126.751 51.5655 126.661 51.0395 126.481 50.5519C126.302 50.0644 126.025 49.6703 125.651 49.3697C125.277 49.0692 124.8 48.9189 124.221 48.9189C123.642 48.9189 123.166 49.0692 122.792 49.3697C122.418 49.6703 122.141 50.0644 121.961 50.5519C121.782 51.0395 121.692 51.5655 121.692 52.13C121.692 52.6945 121.782 53.2187 121.961 53.7026C122.141 54.1865 122.418 54.5769 122.792 54.8738C123.166 55.1707 123.642 55.3192 124.221 55.3192Z" fill="#FF9500"/>
<path d="M118.413 45.0479V56.3088H117.116V45.0479H118.413Z" fill="#FF9500"/>
<path d="M107.68 59.476V47.8631H108.934V49.2048H109.088C109.183 49.0582 109.315 48.8712 109.484 48.6439C109.656 48.413 109.902 48.2077 110.22 48.0281C110.543 47.8448 110.979 47.7532 111.529 47.7532C112.24 47.7532 112.867 47.931 113.41 48.2865C113.952 48.6421 114.376 49.1461 114.68 49.7986C114.984 50.4511 115.136 51.2209 115.136 52.108C115.136 53.0024 114.984 53.7777 114.68 54.4339C114.376 55.0864 113.954 55.5922 113.415 55.9515C112.876 56.3071 112.255 56.4848 111.551 56.4848C111.009 56.4848 110.574 56.395 110.248 56.2154C109.922 56.0321 109.671 55.825 109.495 55.5941C109.319 55.3595 109.183 55.1652 109.088 55.0112H108.978V59.476H107.68ZM108.956 52.086C108.956 52.7238 109.049 53.2865 109.236 53.7741C109.423 54.2579 109.696 54.6373 110.056 54.9123C110.415 55.1835 110.855 55.3192 111.375 55.3192C111.918 55.3192 112.37 55.1762 112.733 54.8903C113.1 54.6007 113.375 54.2121 113.558 53.7246C113.745 53.2334 113.839 52.6872 113.839 52.086C113.839 51.4922 113.747 50.957 113.564 50.4804C113.384 50.0002 113.111 49.6208 112.744 49.3422C112.381 49.06 111.925 48.9189 111.375 48.9189C110.847 48.9189 110.404 49.0527 110.045 49.3203C109.685 49.5842 109.414 49.9544 109.231 50.431C109.047 50.9038 108.956 51.4555 108.956 52.086Z" fill="#FF9500"/>
<path d="M100.286 47.863L102.31 51.3161L104.333 47.863H105.829L103.101 52.0859L105.829 56.3088H104.333L102.31 53.0317L100.286 56.3088H98.7905L101.474 52.0859L98.7905 47.863H100.286Z" fill="#FF9500"/>
<path d="M90.2402 56.3088V45.0479H97.0364V46.2575H91.6039V50.0625H96.6845V51.2722H91.6039V55.0992H97.1244V56.3088H90.2402Z" fill="#FF9500"/>
<path d="M82.3911 56.397C82.1198 56.397 81.8871 56.2998 81.6928 56.1055C81.4985 55.9112 81.4014 55.6785 81.4014 55.4072C81.4014 55.136 81.4985 54.9032 81.6928 54.7089C81.8871 54.5146 82.1198 54.4175 82.3911 54.4175C82.6624 54.4175 82.8951 54.5146 83.0894 54.7089C83.2837 54.9032 83.3808 55.136 83.3808 55.4072C83.3808 55.5868 83.335 55.7518 83.2434 55.9021C83.1554 56.0524 83.0363 56.1733 82.886 56.265C82.7393 56.353 82.5744 56.397 82.3911 56.397Z" fill="#18469C"/>
<path d="M73.6856 51.2282V56.3089H72.3879V47.8631H73.6416V49.1828H73.7516C73.9495 48.7539 74.2501 48.4093 74.6533 48.1491C75.0566 47.8851 75.5771 47.7532 76.2149 47.7532C76.7868 47.7532 77.2871 47.8705 77.716 48.1051C78.1449 48.336 78.4785 48.6879 78.7168 49.1608C78.955 49.63 79.0742 50.2238 79.0742 50.9423V56.3089H77.7765V51.0303C77.7765 50.3668 77.6042 49.8499 77.2596 49.4797C76.9151 49.1058 76.4422 48.9189 75.841 48.9189C75.4268 48.9189 75.0566 49.0087 74.7303 49.1883C74.4077 49.3679 74.153 49.63 73.966 49.9746C73.7791 50.3192 73.6856 50.737 73.6856 51.2282Z" fill="#18469C"/>
<path d="M66.6267 56.3089V47.8632H67.8804V49.1388H67.9684C68.1223 48.7209 68.4009 48.3819 68.8041 48.1216C69.2074 47.8613 69.6619 47.7312 70.1678 47.7312C70.2631 47.7312 70.3822 47.733 70.5252 47.7367C70.6681 47.7404 70.7763 47.7459 70.8496 47.7532V49.0728C70.8056 49.0618 70.7048 49.0454 70.5472 49.0234C70.3932 48.9977 70.2301 48.9849 70.0578 48.9849C69.6472 48.9849 69.2807 49.071 68.9581 49.2433C68.6392 49.4119 68.3862 49.6465 68.1993 49.9471C68.016 50.244 67.9244 50.5831 67.9244 50.9643V56.3089H66.6267Z" fill="#18469C"/>
<path d="M60.3873 56.5068C59.8521 56.5068 59.3664 56.406 58.9302 56.2044C58.494 55.9991 58.1476 55.7041 57.891 55.3192C57.6344 54.9306 57.5061 54.4614 57.5061 53.9115C57.5061 53.4277 57.6014 53.0354 57.792 52.7348C57.9826 52.4306 58.2374 52.1923 58.5563 52.02C58.8752 51.8477 59.2271 51.7194 59.612 51.6351C60.0006 51.5472 60.391 51.4775 60.7832 51.4262C61.2964 51.3602 61.7125 51.3107 62.0314 51.2777C62.354 51.2411 62.5886 51.1806 62.7352 51.0963C62.8855 51.012 62.9606 50.8653 62.9606 50.6564V50.6124C62.9606 50.0699 62.8122 49.6483 62.5153 49.3477C62.222 49.0472 61.7766 48.8969 61.1791 48.8969C60.5596 48.8969 60.0739 49.0325 59.722 49.3038C59.3701 49.575 59.1227 49.8646 58.9797 50.1725L57.748 49.7326C57.968 49.2194 58.2612 48.8199 58.6278 48.534C58.998 48.2444 59.4013 48.0428 59.8375 47.9291C60.2774 47.8118 60.7099 47.7532 61.1351 47.7532C61.4064 47.7532 61.718 47.7862 62.0699 47.8521C62.4255 47.9145 62.7682 48.0446 63.0981 48.2425C63.4317 48.4405 63.7084 48.7392 63.9284 49.1388C64.1483 49.5384 64.2583 50.0736 64.2583 50.7444V56.3089H62.9606V55.1652H62.8947C62.8067 55.3485 62.6601 55.5446 62.4548 55.7535C62.2495 55.9625 61.9764 56.1403 61.6355 56.2869C61.2946 56.4335 60.8785 56.5068 60.3873 56.5068ZM60.5853 55.3412C61.0985 55.3412 61.531 55.2403 61.8829 55.0387C62.2385 54.8371 62.5061 54.5769 62.6857 54.2579C62.869 53.939 62.9606 53.6036 62.9606 53.2517V52.064C62.9057 52.13 62.7847 52.1905 62.5977 52.2455C62.4145 52.2968 62.2019 52.3426 61.9599 52.3829C61.7216 52.4196 61.4889 52.4526 61.2616 52.4819C61.038 52.5076 60.8565 52.5296 60.7172 52.5479C60.38 52.5919 60.0648 52.6634 59.7715 52.7623C59.4819 52.8576 59.2473 53.0024 59.0677 53.1967C58.8917 53.3873 58.8038 53.6476 58.8038 53.9775C58.8038 54.4284 58.9705 54.7693 59.3041 55.0002C59.6414 55.2275 60.0684 55.3412 60.5853 55.3412Z" fill="#18469C"/>
<path d="M52.4311 56.4848C51.6173 56.4848 50.9153 56.3052 50.3251 55.946C49.7386 55.5831 49.2859 55.0772 48.967 54.4284C48.6518 53.7759 48.4941 53.0171 48.4941 52.152C48.4941 51.2869 48.6518 50.5244 48.967 49.8646C49.2859 49.2011 49.7295 48.6843 50.2977 48.314C50.8695 47.9401 51.5367 47.7532 52.2991 47.7532C52.739 47.7532 53.1734 47.8265 53.6023 47.9731C54.0312 48.1197 54.4216 48.358 54.7735 48.6879C55.1254 49.0142 55.4058 49.4467 55.6147 49.9856C55.8237 50.5244 55.9282 51.1879 55.9282 51.976V52.5259H49.4179V51.4042H54.6085C54.6085 50.9277 54.5132 50.5024 54.3226 50.1285C54.1356 49.7546 53.868 49.4596 53.5198 49.2433C53.1752 49.027 52.7683 48.9189 52.2991 48.9189C51.7823 48.9189 51.335 49.0472 50.9575 49.3038C50.5836 49.5567 50.2958 49.8866 50.0942 50.2935C49.8926 50.7004 49.7918 51.1366 49.7918 51.6021V52.3499C49.7918 52.9878 49.9018 53.5285 50.1217 53.972C50.3453 54.4119 50.6551 54.7473 51.051 54.9782C51.4469 55.2055 51.9069 55.3192 52.4311 55.3192C52.772 55.3192 53.0799 55.2715 53.3548 55.1762C53.6334 55.0772 53.8735 54.9306 54.0751 54.7363C54.2768 54.5384 54.4326 54.2928 54.5425 53.9995L55.7962 54.3514C55.6642 54.7766 55.4425 55.1505 55.1309 55.4731C54.8193 55.792 54.4344 56.0413 53.9762 56.2209C53.518 56.3969 53.0029 56.4848 52.4311 56.4848Z" fill="#18469C"/>
<path d="M40.3562 56.3088V45.0479H41.7198V55.0992H46.9544V56.3088H40.3562Z" fill="#18469C"/>
</svg>
