<svg width="16" height="16" viewBox="0 0 16 16" fill="none" xmlns="http://www.w3.org/2000/svg">
<g id="Alarm Bell by Streamlinehq" clip-path="url(#clip0_54650_845)">
<path id="Vector" d="M13.6663 11.6666V7.33331C13.6651 6.17774 13.3105 5.05018 12.6503 4.10181C11.99 3.15344 11.0556 2.42959 9.97234 2.02731C9.89605 1.55877 9.65558 1.13264 9.29393 0.825127C8.93229 0.51761 8.47305 0.348755 7.99834 0.348755C7.52363 0.348755 7.06439 0.51761 6.70275 0.825127C6.34111 1.13264 6.10064 1.55877 6.02434 2.02731C4.94117 2.42946 4.00696 3.15335 3.34713 4.10181C2.68729 5.05028 2.33341 6.17791 2.33301 7.33331V11.6666C2.33301 12.1971 2.12229 12.7058 1.74722 13.0809C1.37215 13.4559 0.863441 13.6666 0.333008 13.6666H15.6663C15.1359 13.6666 14.6272 13.4559 14.2521 13.0809C13.8771 12.7058 13.6663 12.1971 13.6663 11.6666Z" stroke="#111111" stroke-linecap="round" stroke-linejoin="round"/>
<path id="Vector_2" d="M10 13.6666C10 14.1971 9.78929 14.7058 9.41421 15.0808C9.03914 15.4559 8.53043 15.6666 8 15.6666C7.46957 15.6666 6.96086 15.4559 6.58579 15.0808C6.21071 14.7058 6 14.1971 6 13.6666" stroke="#111111" stroke-linecap="round" stroke-linejoin="round"/>
</g>
<defs>
<clipPath id="clip0_54650_845">
<rect width="16" height="16" fill="white"/>
</clipPath>
</defs>
</svg>
