<svg width="25" height="25" viewBox="0 0 25 25" fill="none" xmlns="http://www.w3.org/2000/svg">
<g id="Property 1=pdf">
<g id="Vector">
<path d="M5.19028 2.00218L13.0614 1.98633C13.9888 2.08145 14.7894 2.46985 15.479 3.0802C16.6284 4.09481 17.8808 5.31551 18.9668 6.40146C19.8308 7.26547 20.4332 8.10569 20.5283 9.37395V22.0486C20.449 23.0315 19.7277 23.7925 18.7527 23.9114H5.30918C4.40554 23.7925 3.69214 23.0791 3.57324 22.1755V3.68263C3.71592 2.82655 4.35005 2.17657 5.19028 2.00218ZM5.3171 3.02472C5.00796 3.09606 4.74638 3.32593 4.64334 3.63507C4.56407 9.82577 4.58785 16.0403 4.63541 22.231C4.74638 22.5797 5.06345 22.8572 5.436 22.8809H18.6656C19.1174 22.8572 19.4582 22.445 19.4979 22.0011C19.4503 17.6731 19.5771 13.3214 19.4344 9.0014C19.2521 8.10569 18.721 7.59839 18.1028 6.98803C17.0644 5.95757 15.804 4.68931 14.7022 3.75397C14.2266 3.34971 13.6401 3.07228 13.0139 3.00094H5.3171V3.02472Z" fill="#ED1E24"/>
<path d="M10.7152 5.4265C10.953 5.38687 11.167 5.48198 11.3494 5.63259C11.8567 6.06856 11.8567 7.13072 11.8012 7.749C11.7853 7.93924 11.6585 8.37521 11.6743 8.51789C11.706 8.77946 12.6018 9.62762 12.7841 9.88919C13.545 9.9209 14.3853 9.88919 15.0828 10.2459C15.6139 10.5233 16.0736 11.2446 15.4395 11.6885C14.6151 12.2593 13.2121 11.2367 12.6018 10.6739C12.3957 10.5867 10.9609 10.8087 10.7945 10.9355C10.7311 10.9831 10.4933 11.4587 10.4061 11.5776C10.1049 12.0056 9.73232 12.5446 9.24879 12.7745C8.82868 12.9727 8.15492 13.0678 7.96468 12.5208C7.57627 11.3953 9.50244 10.6026 10.2951 10.3172C10.414 10.0002 10.9292 8.938 10.8896 8.66056C10.8738 8.56545 10.5884 8.13741 10.525 7.99473C10.2713 7.44779 10.0256 6.86915 10.0811 6.25087C10.1128 5.91002 10.3506 5.48199 10.7152 5.4265ZM11.1116 7.55084V6.75817C11.1116 6.69476 10.9372 6.1716 10.8975 6.1399C10.8262 6.07648 10.8262 6.15575 10.8103 6.20331C10.7231 6.48867 10.8103 6.75025 10.8817 7.02768L11.1116 7.55084ZM11.8804 9.99224L11.817 9.86541L11.4128 9.39774L11.1987 10.0794L11.8804 9.99224ZM15.0035 11.1099C14.734 10.7294 14.1554 10.6739 13.7194 10.6422L14.0048 10.8483C14.1554 10.9514 14.8926 11.2605 15.0035 11.1099ZM9.65305 11.3635C9.57378 11.2922 8.59088 11.9739 8.62259 12.2196C8.77319 12.3544 9.37562 11.7599 9.47866 11.641C9.51037 11.6013 9.68476 11.3953 9.65305 11.3635Z" fill="#ED1E24"/>
<path d="M10.6358 20.5267V15.9451H12.3717C12.4906 15.9451 12.9266 16.1037 13.0455 16.1671C14.5199 16.9122 14.5278 19.5676 13.0455 20.3048C12.9345 20.3603 12.4669 20.5267 12.3717 20.5267H10.6358ZM11.5791 19.7579H12.2449C12.3004 19.7579 12.6016 19.6231 12.665 19.5755C13.3546 19.1237 13.3626 17.3165 12.6412 16.8805C12.554 16.8329 12.2845 16.714 12.2053 16.714H11.587V19.7499L11.5791 19.7579Z" fill="#ED1E24"/>
<path d="M6.95798 18.9414V20.5267H6.01471V15.9451H8.13112C8.41648 15.9451 8.99512 16.2622 9.17743 16.4842C10.0097 17.4829 9.27255 18.9414 8.00429 18.9414H6.95798ZM6.95798 18.1329H8.05185C8.05185 18.1329 8.25002 18.0457 8.28172 18.0219C8.70184 17.7366 8.61464 16.9835 8.14697 16.7933C8.11527 16.7774 7.89332 16.714 7.87747 16.714H6.95798V18.1329Z" fill="#ED1E24"/>
<path d="M18.2613 15.9451V16.714H16.2479V17.8713H18.0473V18.6878H16.2479V20.5267H15.265V15.9451H18.2613Z" fill="#ED1E24"/>
</g>
</g>
</svg>
